<svg
  width="128"
  height="128"
  viewBox="0 0 128 128"
  xmlns="http://www.w3.org/2000/svg"
  role="img"
  aria-label="GenBusApp extension icon"
>
  <defs>
    <linearGradient id="icon-bg" x1="16" y1="12" x2="112" y2="116" gradientUnits="userSpaceOnUse">
      <stop offset="0" stop-color="#2F81F7" />
      <stop offset="1" stop-color="#0E4FB5" />
    </linearGradient>
  </defs>
  <rect x="8" y="8" width="112" height="112" rx="24" fill="url(#icon-bg)" />
  <path
    fill="#FFFFFF"
    fill-rule="evenodd"
    d="M40 18C31.164 18 24 25.164 24 34V94C24 102.836 31.164 110 40 110H88C96.836 110 104 102.836 104 94V34C104 25.164 96.836 18 88 18H40ZM38 32C34.686 32 32 34.686 32 38V90C32 93.314 34.686 96 38 96H90C93.314 96 96 93.314 96 90V38C96 34.686 93.314 32 90 32H38ZM48.514 44.14C50.934 44.14 52.896 46.102 52.896 48.522V53.042C52.896 56.029 51.437 58.613 48.355 60C51.437 61.387 52.896 63.971 52.896 66.958V71.478C52.896 73.898 50.934 75.86 48.514 75.86H44.84V68.552H45.588V65.32C45.588 63.668 44.516 62.526 42.164 61.942L39.784 61.352V58.648L42.164 58.058C44.516 57.474 45.588 56.332 45.588 54.68V51.448H44.84V44.14H48.514ZM79.486 44.14C77.066 44.14 75.104 46.102 75.104 48.522V53.042C75.104 56.029 76.563 58.613 79.645 60C76.563 61.387 75.104 63.971 75.104 66.958V71.478C75.104 73.898 77.066 75.86 79.486 75.86H83.16V68.552H82.412V65.32C82.412 63.668 83.484 62.526 85.836 61.942L88.216 61.352V58.648L85.836 58.058C83.484 57.474 82.412 56.332 82.412 54.68V51.448H83.16V44.14H79.486ZM59 47C56.791 47 55 48.791 55 51C55 53.209 56.791 55 59 55H69C71.209 55 73 53.209 73 51C73 48.791 71.209 47 69 47H59ZM59 58C56.791 58 55 59.791 55 62C55 64.209 56.791 66 59 66H69C71.209 66 73 64.209 73 62C73 59.791 71.209 58 69 58H59ZM55 73C55 70.791 56.791 69 59 69H69C71.209 69 73 70.791 73 73C73 75.209 71.209 77 69 77H59C56.791 77 55 75.209 55 73Z"
    clip-rule="evenodd"
  />
</svg>
